An ex-con sets out to avenge his brother's death after they were double-crossed during a heist years ago. During his campaign, however, he's tracked by a veteran cop and an egocentric hit man.



Dwayne Johnson	 ...	Driver
Mauricio Lopez	 ...	Prison Guard
Jim Gaines	 ...	Inmate (as James Gaines)
Oliver Jackson-Cohen	 ...	Killer
Tom Berenger	 ...	Warden
Jan Hoag	 ...	Receptionist
Courtney Gains	 ...	Telemarketer
Billy Bob Thornton	 ...	Cop
Michael Irby	 ...	Vaquero
Josh Clark	 ...	Uniform



Format                           : AVI
Format/Info                      : Audio Video Interleave
File size                        : 800 MiB
Duration                         : 1h 37mn
Overall bit rate                 : 1 142 Kbps
Writing application              : VirtualDubMod 1.5.4.1 (build 2178/release)
Writing library                  : VirtualDubMod build 2178/release

Video
ID                               : 0
Format                           : MPEG-4 Visual
Format profile                   : Advanced Simple@L5
Format settings, BVOP            : No
Format settings, QPel            : No
Format settings, GMC             : No warppoints
Format settings, Matrix          : Custom
Codec ID                         : XVID
Codec ID/Hint                    : XviD
Duration                         : 1h 37mn
Bit rate                         : 1 006 Kbps
Width                            : 640 pixels
Height                           : 272 pixels
Display aspect ratio             : 2.35:1
Frame rate                       : 23.976 fps
Color space                      : YUV
Chroma subsampling               : 4:2:0
Bit depth                        : 8 bits
Scan type                        : Progressive
Compression mode                 : Lossy
Bits/(Pixel*Frame)               : 0.241
Stream size                      : 705 MiB (88%)
Writing library                  : XviD 1.2.1 (UTC 2008-12-04)

Audio
ID                               : 1
Format                           : MPEG Audio
Format version                   : Version 1
Format profile                   : Layer 3
Mode                             : Joint stereo
Mode extension                   : MS Stereo
Codec ID                         : 55
Codec ID/Hint                    : MP3
Duration                         : 1h 37mn
Bit rate mode                    : Variable
Bit rate                         : 129 Kbps
Channel(s)                       : 2 channels
Sampling rate                    : 48.0 KHz
Compression mode                 : Lossy
Stream size                      : 86.2 MiB (11%)
Alignment                        : Aligned on interleaves
Interleave, duration             : 24 ms (0.58 video frame)
Interleave, preload duration     : 149 ms
Writing library                  : LAME3.98b

 
http://img191.imageshack.us/img191/7929/vlcsnap2011020310h13m47.png 
http://img251.imageshack.us/img251/1025/vlcsnap2011020310h13m57.png 
http://img694.imageshack.us/img694/6258/vlcsnap2011020310h14m16.png